<?xml version="1.0" encoding="utf-8"?>
<!-- Generator: Adobe Illustrator 16.0.0, SVG Export Plug-In . SVG Version: 6.00 Build 0)  -->
<!DOCTYPE svg PUBLIC "-//W3C//DTD SVG 1.1//EN" "http://www.w3.org/Graphics/SVG/1.1/DTD/svg11.dtd">
<svg version="1.1" id="Layer_1" xmlns="http://www.w3.org/2000/svg" xmlns:xlink="http://www.w3.org/1999/xlink" x="0px" y="0px"
	 width="324px" height="324.793px" viewBox="0 0 324 324.793" enable-background="new 0 0 324 324.793" xml:space="preserve">
<g>
	<g>
		<g opacity="0.5">
			<polyline fill="#FFA000" points="63.207,130.85 134.213,130.85 134.213,201.856 			"/>
			<polyline fill="#3DAFD9" points="189.786,201.856 189.786,130.85 260.793,130.85 			"/>
			<polyline fill="#FFA000" points="260.793,75.276 189.786,75.276 189.786,4.271 			"/>
			<polyline fill="#3DAFD9" points="134.213,4.271 134.213,75.276 63.207,75.276 			"/>
		</g>
		<g>
			<polyline fill="#FFA000" points="89.626,123.419 141.645,123.419 141.645,175.438 			"/>
			<polyline fill="#3DAFD9" points="182.355,175.438 182.355,123.419 234.374,123.419 			"/>
			<polyline fill="#FFA000" points="234.374,82.708 182.355,82.708 182.355,30.689 			"/>
			<polyline fill="#3DAFD9" points="141.645,30.689 141.645,82.708 89.626,82.708 			"/>
		</g>
	</g>
	<g>
		<path fill="#FFA000" d="M36.031,290.841v29.682H18.672v-84.246h32.865c4.977,0,9.422,0.695,13.338,2.084
			c3.914,1.389,7.232,3.326,9.951,5.814c2.721,2.488,4.793,5.439,6.221,8.854c1.426,3.413,2.141,7.127,2.141,11.138
			c0,4.089-0.715,7.773-2.141,11.052c-1.428,3.279-3.5,6.075-6.221,8.39c-2.719,2.314-6.037,4.099-9.951,5.353
			c-3.916,1.254-8.361,1.881-13.338,1.881H36.031z M36.031,276.78h15.506c2.469,0,4.6-0.309,6.395-0.926
			c1.793-0.617,3.258-1.477,4.396-2.575c1.139-1.1,1.977-2.421,2.518-3.964c0.539-1.542,0.811-3.221,0.811-5.033
			s-0.271-3.559-0.811-5.236c-0.541-1.679-1.379-3.163-2.518-4.456c-1.139-1.292-2.604-2.323-4.396-3.095
			c-1.795-0.771-3.926-1.158-6.395-1.158H36.031V276.78z"/>
		<path fill="#FFA000" d="M156.521,250.337h-25.805v70.186h-17.359v-70.186H87.898v-14.061h68.623V250.337z"/>
		<path fill="#3DAFD9" d="M179.399,263.565v13.729h-9.755v-40.467h16.146c2.429,0,4.613,0.343,6.56,1.028
			c1.945,0.686,3.595,1.64,4.948,2.862c1.352,1.223,2.39,2.674,3.111,4.35c0.723,1.678,1.085,3.507,1.085,5.489
			c0,1.965-0.362,3.743-1.085,5.337c-0.722,1.594-1.76,2.96-3.111,4.099c-1.354,1.14-3.003,2.02-4.948,2.641
			c-1.946,0.621-4.131,0.932-6.56,0.932H179.399z M179.399,256.033h6.392c1.019,0,1.895-0.134,2.626-0.403
			c0.732-0.268,1.334-0.644,1.808-1.125c0.473-0.481,0.82-1.056,1.043-1.724c0.222-0.666,0.333-1.39,0.333-2.168
			c0-0.833-0.111-1.626-0.333-2.377c-0.223-0.749-0.57-1.411-1.043-1.987c-0.474-0.573-1.075-1.031-1.808-1.375
			c-0.731-0.343-1.607-0.514-2.626-0.514h-6.392V256.033z"/>
		<path fill="#3DAFD9" d="M216.446,269.79h16.981v7.505h-26.736v-40.467h9.755V269.79z"/>
		<path fill="#3DAFD9" d="M268.614,236.828v26.432c0,2.371-0.381,4.465-1.141,6.281c-0.76,1.815-1.835,3.339-3.224,4.571
			c-1.39,1.232-3.062,2.164-5.018,2.794c-1.955,0.629-4.125,0.944-6.517,0.944c-2.372,0-4.54-0.315-6.503-0.944
			c-1.965-0.63-3.646-1.562-5.045-2.794s-2.487-2.756-3.265-4.571c-0.779-1.816-1.169-3.91-1.169-6.281v-26.432h9.812v26.432
			c0,2.501,0.533,4.308,1.598,5.419c1.065,1.111,2.59,1.668,4.572,1.668c2.02,0,3.548-0.557,4.586-1.668s1.557-2.918,1.557-5.419
			v-26.432H268.614z"/>
		<path fill="#3DAFD9" d="M295.573,266.539c0-0.63-0.089-1.2-0.264-1.71c-0.177-0.509-0.524-0.99-1.043-1.445
			c-0.519-0.453-1.245-0.902-2.183-1.348c-0.935-0.444-2.162-0.917-3.682-1.417c-1.777-0.594-3.493-1.26-5.141-2.002
			c-1.649-0.74-3.114-1.62-4.392-2.641c-1.279-1.019-2.303-2.209-3.072-3.57s-1.152-2.95-1.152-4.767
			c0-1.741,0.388-3.312,1.167-4.711c0.778-1.399,1.861-2.589,3.252-3.571c1.389-0.981,3.033-1.741,4.933-2.278
			c1.898-0.538,3.97-0.807,6.213-0.807c2.204,0,4.232,0.296,6.086,0.89c1.853,0.593,3.446,1.436,4.78,2.528
			c1.334,1.094,2.376,2.414,3.127,3.961c0.75,1.547,1.125,3.275,1.125,5.184h-9.728c0-0.76-0.116-1.459-0.348-2.099
			c-0.231-0.639-0.582-1.186-1.056-1.64c-0.473-0.454-1.056-0.811-1.751-1.069c-0.695-0.26-1.514-0.39-2.46-0.39
			c-0.927,0-1.741,0.106-2.446,0.319c-0.703,0.213-1.292,0.51-1.764,0.89c-0.473,0.379-0.83,0.815-1.07,1.307
			c-0.241,0.49-0.361,1.014-0.361,1.57c0,0.611,0.172,1.162,0.515,1.653s0.833,0.954,1.473,1.39
			c0.639,0.436,1.417,0.843,2.335,1.223c0.917,0.38,1.95,0.755,3.099,1.126c2.148,0.686,4.066,1.445,5.753,2.279
			c1.687,0.833,3.107,1.788,4.267,2.862c1.158,1.074,2.038,2.289,2.641,3.641c0.602,1.354,0.902,2.882,0.902,4.586
			c0,1.816-0.357,3.433-1.07,4.85c-0.713,1.418-1.724,2.608-3.028,3.571c-1.307,0.964-2.882,1.696-4.727,2.195
			c-1.842,0.501-3.894,0.751-6.154,0.751c-1.391,0-2.771-0.116-4.143-0.348s-2.681-0.587-3.931-1.07
			c-1.252-0.48-2.419-1.088-3.504-1.819c-1.083-0.732-2.02-1.607-2.807-2.627c-0.788-1.019-1.407-2.177-1.861-3.474
			c-0.455-1.297-0.681-2.742-0.681-4.336h9.782c0,1.186,0.157,2.181,0.473,2.987c0.314,0.807,0.777,1.46,1.389,1.96
			c0.612,0.5,1.358,0.856,2.239,1.07c0.878,0.212,1.894,0.318,3.043,0.318c0.927,0,1.718-0.106,2.376-0.318
			c0.657-0.214,1.199-0.501,1.626-0.862c0.426-0.361,0.736-0.782,0.932-1.265C295.475,267.586,295.573,267.076,295.573,266.539z"/>
	</g>
</g>
</svg>
