<?xml version="1.0" encoding="utf-8"?>
<!-- Generator: Adobe Illustrator 16.0.0, SVG Export Plug-In . SVG Version: 6.00 Build 0)  -->
<!DOCTYPE svg PUBLIC "-//W3C//DTD SVG 1.1//EN" "http://www.w3.org/Graphics/SVG/1.1/DTD/svg11.dtd">
<svg version="1.1" id="Layer_1" xmlns="http://www.w3.org/2000/svg" xmlns:xlink="http://www.w3.org/1999/xlink" x="0px" y="0px"
	 width="324px" height="324.793px" viewBox="0 0 324 324.793" enable-background="new 0 0 324 324.793" xml:space="preserve">
<g>
	<g>
		<g opacity="0.5">
			<polyline fill="#FFB300" points="63.207,130.85 134.213,130.85 134.213,201.855 			"/>
			<polyline fill="#67DAFF" points="189.786,201.855 189.786,130.85 260.793,130.85 			"/>
			<polyline fill="#FFB300" points="260.793,75.276 189.786,75.276 189.786,4.271 			"/>
			<polyline fill="#67DAFF" points="134.213,4.271 134.213,75.276 63.207,75.276 			"/>
		</g>
		<g>
			<polyline fill="#FFB300" points="89.626,123.419 141.645,123.419 141.645,175.438 			"/>
			<polyline fill="#67DAFF" points="182.355,175.438 182.355,123.419 234.374,123.419 			"/>
			<polyline fill="#FFB300" points="234.374,82.708 182.355,82.708 182.355,30.689 			"/>
			<polyline fill="#67DAFF" points="141.645,30.689 141.645,82.708 89.626,82.708 			"/>
		</g>
	</g>
	<g>
		<path fill="#FFB300" d="M71.915,267.296v21.228H59.5v-60.248h23.503c3.56,0,6.738,0.497,9.539,1.49
			c2.799,0.993,5.172,2.379,7.117,4.158c1.945,1.779,3.427,3.889,4.448,6.332c1.02,2.44,1.531,5.097,1.531,7.965
			c0,2.924-0.511,5.559-1.531,7.903c-1.021,2.346-2.503,4.345-4.448,6.001c-1.945,1.654-4.317,2.931-7.117,3.827
			c-2.8,0.897-5.979,1.346-9.539,1.346H71.915V267.296z M71.915,257.24h11.089c1.766,0,3.29-0.221,4.573-0.662
			c1.282-0.441,2.33-1.056,3.144-1.841c0.814-0.786,1.414-1.732,1.801-2.836c0.385-1.102,0.58-2.303,0.58-3.599
			c0-1.295-0.194-2.545-0.58-3.744c-0.387-1.201-0.986-2.263-1.801-3.187c-0.815-0.925-1.862-1.661-3.144-2.214
			c-1.283-0.551-2.808-0.828-4.573-0.828H71.915V257.24z"/>
		<path fill="#FFB300" d="M158.082,238.33h-18.454v50.193h-12.414V238.33h-18.207v-10.056h49.075V238.33z"/>
		<path fill="#67DAFF" d="M174.442,247.79v9.818h-6.976v-28.939h11.547c1.736,0,3.298,0.245,4.69,0.735
			c1.392,0.49,2.571,1.173,3.539,2.046c0.967,0.875,1.709,1.912,2.225,3.111c0.517,1.2,0.776,2.508,0.776,3.926
			c0,1.405-0.26,2.676-0.776,3.816c-0.516,1.14-1.259,2.117-2.225,2.932c-0.969,0.814-2.147,1.444-3.539,1.888
			c-1.391,0.444-2.954,0.667-4.69,0.667H174.442L174.442,247.79z M174.442,242.404h4.571c0.729,0,1.355-0.097,1.878-0.289
			c0.523-0.191,0.954-0.46,1.293-0.805c0.339-0.344,0.587-0.755,0.746-1.232c0.159-0.477,0.238-0.994,0.238-1.55
			c0-0.597-0.079-1.164-0.238-1.7s-0.407-1.009-0.746-1.421c-0.339-0.41-0.769-0.738-1.293-0.983
			c-0.522-0.245-1.148-0.368-1.878-0.368h-4.571V242.404z"/>
		<path fill="#67DAFF" d="M200.936,252.242h12.145v5.367h-19.119V228.67h6.975V252.242L200.936,252.242z"/>
		<path fill="#67DAFF" d="M238.244,228.67v18.902c0,1.695-0.273,3.192-0.816,4.491c-0.543,1.298-1.312,2.388-2.306,3.269
			c-0.993,0.882-2.189,1.548-3.589,1.999c-1.398,0.45-2.95,0.675-4.66,0.675c-1.696,0-3.247-0.225-4.65-0.675
			c-1.405-0.451-2.607-1.117-3.607-1.999c-1.001-0.881-1.778-1.971-2.336-3.269c-0.557-1.299-0.835-2.796-0.835-4.491V228.67h7.017
			v18.902c0,1.789,0.381,3.081,1.144,3.876c0.761,0.794,1.852,1.192,3.269,1.192c1.445,0,2.537-0.398,3.279-1.192
			c0.743-0.795,1.114-2.087,1.114-3.876V228.67H238.244z"/>
		<path fill="#67DAFF" d="M257.523,249.917c0-0.45-0.063-0.858-0.189-1.223s-0.374-0.708-0.745-1.034
			c-0.371-0.323-0.89-0.645-1.562-0.963c-0.668-0.318-1.546-0.656-2.634-1.014c-1.27-0.425-2.497-0.901-3.676-1.432
			c-1.179-0.529-2.227-1.159-3.141-1.889c-0.915-0.729-1.647-1.58-2.197-2.553c-0.55-0.974-0.823-2.11-0.823-3.41
			c0-1.244,0.277-2.368,0.834-3.369c0.557-1,1.331-1.851,2.325-2.553s2.169-1.245,3.528-1.63c1.357-0.385,2.839-0.577,4.443-0.577
			c1.576,0,3.026,0.212,4.353,0.637c1.325,0.424,2.464,1.026,3.418,1.808c0.954,0.783,1.699,1.727,2.236,2.833
			c0.536,1.105,0.805,2.342,0.805,3.707h-6.957c0-0.543-0.083-1.043-0.249-1.501c-0.165-0.456-0.416-0.848-0.755-1.173
			c-0.338-0.324-0.756-0.58-1.253-0.764c-0.496-0.187-1.082-0.279-1.759-0.279c-0.663,0-1.245,0.076-1.749,0.228
			c-0.503,0.152-0.924,0.365-1.262,0.637c-0.338,0.271-0.594,0.583-0.765,0.935c-0.173,0.351-0.259,0.726-0.259,1.123
			c0,0.437,0.124,0.831,0.368,1.182c0.246,0.352,0.597,0.683,1.054,0.994c0.457,0.313,1.014,0.604,1.67,0.875
			s1.395,0.54,2.217,0.806c1.535,0.49,2.907,1.033,4.113,1.63c1.207,0.595,2.223,1.278,3.052,2.046
			c0.828,0.769,1.458,1.638,1.889,2.604c0.43,0.969,0.646,2.062,0.646,3.28c0,1.299-0.256,2.455-0.766,3.469
			s-1.232,1.865-2.165,2.554c-0.936,0.689-2.062,1.212-3.381,1.57c-1.317,0.357-2.784,0.536-4.4,0.536
			c-0.995,0-1.982-0.083-2.963-0.249c-0.981-0.166-1.918-0.42-2.812-0.766c-0.896-0.343-1.73-0.777-2.506-1.3
			c-0.775-0.524-1.444-1.149-2.008-1.879s-1.006-1.558-1.33-2.484c-0.325-0.928-0.487-1.961-0.487-3.102h6.995
			c0,0.849,0.112,1.561,0.338,2.137c0.226,0.577,0.557,1.044,0.994,1.401s0.971,0.612,1.601,0.766
			c0.629,0.151,1.354,0.228,2.176,0.228c0.664,0,1.229-0.076,1.7-0.228c0.47-0.153,0.857-0.358,1.162-0.616s0.526-0.56,0.667-0.904
			C257.453,250.666,257.523,250.301,257.523,249.917z"/>
	</g>
</g>
</svg>
