<?xml version="1.0" encoding="utf-8"?>
<!-- Generator: Adobe Illustrator 16.0.0, SVG Export Plug-In . SVG Version: 6.00 Build 0)  -->
<!DOCTYPE svg PUBLIC "-//W3C//DTD SVG 1.1//EN" "http://www.w3.org/Graphics/SVG/1.1/DTD/svg11.dtd">
<svg version="1.1" id="Layer_1" xmlns="http://www.w3.org/2000/svg" xmlns:xlink="http://www.w3.org/1999/xlink" x="0px" y="0px"
	 width="24px" height="24px" viewBox="0 0 24 24" enable-background="new 0 0 24 24" xml:space="preserve">
<path display="none" d="M18.842,8.726c0.527,0,0.996,0.101,1.408,0.301c1.237,0.552,1.855,1.544,1.855,2.975v2.33
	c0,0.821-0.102,1.641-0.304,2.444l-1.117,4.462c-0.185,0.754-0.583,1.366-1.191,1.84c-0.61,0.474-1.301,0.71-2.073,0.71H8.632
	c-0.93,0-1.725-0.325-2.383-0.985c-0.657-0.657-0.987-1.452-0.987-2.38v-5.279L2.118,6.883c-0.15-0.395-0.224-0.794-0.224-1.196
	c0-0.93,0.329-1.725,0.987-2.384c0.658-0.656,1.452-0.986,2.381-0.986c0.703,0,1.34,0.199,1.915,0.599
	c0.574,0.4,0.984,0.923,1.231,1.571l0.225,0.58V3.579c0-0.93,0.328-1.722,0.987-2.381C10.275,0.54,11.07,0.212,12,0.212
	s1.725,0.328,2.381,0.986c0.658,0.659,0.986,1.451,0.986,2.381v3.434c0.237-0.041,0.449-0.064,0.632-0.064
	c0.606,0,1.165,0.161,1.678,0.479C18.189,7.749,18.58,8.181,18.842,8.726z M15.999,8.632c-0.288,0-0.554,0.08-0.794,0.237
	c-0.241,0.158-0.425,0.37-0.548,0.632l-0.972,2.146l-0.936,2.038h0.723c0.439,0,0.834,0.137,1.185,0.414
	c0.353,0.277,0.57,0.631,0.658,1.061l2.026-4.447c0.088-0.175,0.133-0.378,0.133-0.605c0-0.405-0.146-0.75-0.435-1.042
	C16.749,8.777,16.404,8.632,15.999,8.632z M18.908,10.408c-0.193,0-0.37,0.038-0.532,0.106c-0.164,0.072-0.29,0.14-0.384,0.21
	c-0.091,0.071-0.194,0.2-0.309,0.39c-0.112,0.188-0.187,0.321-0.225,0.399c-0.034,0.079-0.107,0.242-0.222,0.488L15.5,15.814
	c-0.088,0.177-0.133,0.38-0.133,0.607c0,0.404,0.146,0.751,0.435,1.04c0.291,0.287,0.638,0.436,1.041,0.436
	c0.289,0,0.556-0.08,0.795-0.237c0.241-0.158,0.425-0.37,0.547-0.632l2.105-4.631c0.078-0.158,0.118-0.326,0.118-0.5
	c0-0.439-0.141-0.798-0.422-1.073C19.708,10.546,19.347,10.408,18.908,10.408z M3.578,5.687c0,0.193,0.036,0.395,0.106,0.604
	l3.263,8.553v0.907l1.342-1.46c0.377-0.404,0.841-0.606,1.394-0.606h2.606l1.396-3.064V3.579c0-0.463-0.166-0.861-0.494-1.189
	C12.861,2.06,12.463,1.896,12,1.896S11.139,2.06,10.808,2.39c-0.328,0.328-0.493,0.726-0.493,1.189v8.423H9.474L6.841,5.08
	C6.721,4.756,6.513,4.495,6.224,4.297C5.933,4.101,5.615,4.001,5.262,4.001c-0.463,0-0.861,0.166-1.19,0.494
	C3.744,4.823,3.578,5.22,3.578,5.687z M17.42,22.105c0.389,0,0.73-0.119,1.033-0.355c0.305-0.237,0.504-0.542,0.601-0.923
	l1.118-4.459c0.167-0.637,0.248-1.318,0.248-2.036v-1.2l-1.854,4.08c-0.148,0.335-0.381,0.603-0.696,0.805
	c-0.316,0.202-0.659,0.3-1.026,0.3c-0.466,0-0.875-0.153-1.231-0.452c-0.355-0.303-0.567-0.683-0.638-1.142
	c-0.386,0.503-0.887,0.751-1.501,0.751h-2.736v-0.42h2.736c0.404,0,0.761-0.143,1.065-0.434c0.309-0.292,0.463-0.639,0.463-1.043
	c0-0.398-0.137-0.749-0.408-1.035c-0.274-0.29-0.609-0.436-1.015-0.436H9.683c-0.429,0-0.789,0.159-1.078,0.476l-1.658,1.786v4.055
	c0,0.464,0.166,0.859,0.493,1.189c0.329,0.331,0.726,0.493,1.192,0.493H17.42z"/>
<path display="none" d="M18.487,9.451c-0.606-1.283-2.063-1.898-3.381-1.454V3.243c0-1.729-1.394-3.136-3.106-3.136
	c-1.712,0-3.105,1.407-3.105,3.136l0.132,5.041L7.593,4.123C6.966,2.501,5.155,1.711,3.56,2.347
	C1.966,2.982,1.186,4.796,1.808,6.405l2.809,7.258c-1.354,1.1-2.291,2.395-1.332,4.098l2.654,4.715
	c0.492,0.874,1.417,1.417,2.412,1.417h9.954c0.626,0,1.239-0.217,1.729-0.609c0.485-0.391,0.831-0.941,0.974-1.553l1.326-5.726
	c0.048-0.209,0.073-0.422,0.073-0.637V12C22.406,9.962,20.31,8.614,18.487,9.451z M4.894,15.353l1.289-1.047
	c0.125-0.103,0.171-0.273,0.113-0.424L3.194,5.869c-0.79-2.041,2.229-3.234,3.013-1.21l2.894,7.476
	c0.055,0.143,0.193,0.237,0.346,0.237h0.563c0.205,0,0.372-0.167,0.372-0.372V3.243c0-2.18,3.239-2.185,3.239,0V12
	c0,0.205,0.167,0.372,0.372,0.372h0.331c0.205,0,0.371-0.167,0.371-0.372v-1.347c0-1.735,2.575-1.738,2.575,0V12
	c0,0.205,0.167,0.372,0.372,0.372h0.332c0.205,0,0.371-0.167,0.371-0.372c0-1.735,2.575-1.738,2.575,0v3.368
	c0,0.102-0.012,0.203-0.035,0.302l-1.327,5.726c-0.138,0.595-0.653,1.011-1.253,1.011H8.351c-0.46,0-0.888-0.253-1.117-0.659
	L4.58,17.032C4.261,16.466,4.393,15.759,4.894,15.353z"/>
<path display="none" d="M20.58,10.135c-1.03,0-1.865,0.835-1.865,1.865h-0.373v-1.492c0-1.03-0.835-1.865-1.865-1.865
	s-1.865,0.835-1.865,1.865V12h-0.373V2.301c0-1.236-1.002-2.238-2.238-2.238c-1.235,0-2.238,1.002-2.238,2.238V12H9.129L5.876,3.721
	C5.425,2.57,4.126,2.003,2.975,2.456c-1.151,0.452-1.717,1.75-1.264,2.901l3.486,8.875l-1.45,1.16
	c-0.718,0.573-0.91,1.586-0.455,2.382l2.984,5.223c0.333,0.582,0.95,0.94,1.62,0.94h11.191c0.866,0,1.618-0.595,1.816-1.438
	l1.492-6.342c0.031-0.14,0.049-0.284,0.049-0.427V12C22.445,10.97,21.61,10.135,20.58,10.135z"/>
<path display="none" d="M20.964,13.666l2.023,1.168c0.23,0.134,0.339,0.41,0.26,0.665c-0.525,1.691-1.424,3.222-2.597,4.49
	c-0.181,0.195-0.475,0.24-0.704,0.108l-2.022-1.168c-0.851,0.729-1.828,1.294-2.885,1.668v2.335c0,0.268-0.185,0.499-0.445,0.555
	c-1.659,0.374-3.442,0.394-5.186,0.002c-0.261-0.058-0.447-0.289-0.447-0.557v-2.335c-1.056-0.374-2.034-0.939-2.885-1.668
	l-2.021,1.168c-0.231,0.132-0.523,0.087-0.704-0.108c-1.174-1.269-2.071-2.799-2.597-4.49c-0.08-0.255,0.028-0.531,0.259-0.665
	l2.024-1.168c-0.203-1.102-0.203-2.23,0-3.332L1.012,9.165c-0.23-0.133-0.338-0.408-0.259-0.664C1.279,6.81,2.176,5.28,3.35,4.011
	c0.181-0.196,0.473-0.24,0.704-0.107l2.021,1.168c0.851-0.729,1.83-1.294,2.885-1.668V1.068c0-0.268,0.185-0.499,0.445-0.557
	c1.659-0.373,3.442-0.393,5.186-0.001c0.262,0.059,0.447,0.29,0.447,0.557v2.336c1.057,0.374,2.034,0.938,2.885,1.668l2.022-1.168
	c0.229-0.133,0.523-0.089,0.704,0.107c1.173,1.27,2.071,2.799,2.597,4.49c0.079,0.256-0.029,0.531-0.26,0.664l-2.023,1.169
	C21.167,11.436,21.167,12.564,20.964,13.666z M15.799,12c0-2.094-1.704-3.798-3.799-3.798c-2.094,0-3.798,1.704-3.798,3.798
	c0,2.095,1.704,3.799,3.798,3.799C14.095,15.799,15.799,14.095,15.799,12z"/>
<path display="none" d="M22.764,14.055l-1.549-0.895c0.098-0.77,0.098-1.55,0-2.321l1.549-0.894
	c0.454-0.263,0.674-0.802,0.525-1.306c-0.533-1.792-1.481-3.405-2.733-4.729c-0.362-0.383-0.94-0.467-1.397-0.203L17.612,4.6
	c-0.618-0.471-1.294-0.861-2.01-1.163V1.651c0-0.528-0.363-0.987-0.878-1.109c-1.787-0.423-3.663-0.424-5.45,0
	C8.761,0.664,8.397,1.123,8.397,1.651v1.786C7.681,3.738,7.005,4.129,6.388,4.6L4.841,3.707C4.384,3.443,3.806,3.527,3.443,3.91
	c-1.251,1.324-2.2,2.937-2.731,4.729c-0.15,0.504,0.07,1.043,0.524,1.306l1.549,0.894c-0.098,0.771-0.098,1.551,0,2.321
	l-1.549,0.895c-0.454,0.263-0.674,0.803-0.524,1.307c0.532,1.792,1.48,3.405,2.731,4.729c0.362,0.383,0.941,0.466,1.398,0.203
	l1.546-0.892c0.618,0.469,1.293,0.86,2.01,1.162v1.785c0,0.527,0.363,0.987,0.877,1.109c1.787,0.423,3.663,0.423,5.45,0
	c0.515-0.122,0.878-0.582,0.878-1.109v-1.785c0.716-0.302,1.392-0.693,2.01-1.162l1.546,0.892c0.457,0.263,1.035,0.18,1.397-0.203
	c1.252-1.323,2.2-2.937,2.733-4.729C23.438,14.857,23.218,14.317,22.764,14.055z M19.655,18.825l-2.199-1.27
	c-1.28,1.095-1.736,1.371-3.373,1.949v2.539c-1.374,0.283-2.792,0.283-4.167,0v-2.539c-1.596-0.563-2.058-0.826-3.373-1.949
	l-2.199,1.27c-0.936-1.05-1.647-2.278-2.086-3.606l2.2-1.271c-0.311-1.681-0.311-2.214,0-3.897l-2.2-1.269
	c0.438-1.328,1.15-2.558,2.086-3.607l2.199,1.271c1.3-1.113,1.76-1.38,3.373-1.951V1.956c1.374-0.284,2.793-0.284,4.167,0v2.539
	c1.613,0.571,2.073,0.838,3.373,1.951l2.199-1.271c0.937,1.049,1.646,2.279,2.085,3.607l-2.199,1.27
	c0.312,1.682,0.312,2.215,0,3.898l2.199,1.269C21.302,16.547,20.592,17.776,19.655,18.825z M12,7.442
	c-2.514,0-4.558,2.044-4.558,4.558S9.486,16.559,12,16.559s4.559-2.045,4.559-4.559S14.514,7.442,12,7.442z M12,15.039
	c-1.676,0-3.039-1.362-3.039-3.039c0-1.676,1.363-3.039,3.039-3.039c1.677,0,3.039,1.363,3.039,3.039
	C15.039,13.677,13.677,15.039,12,15.039z"/>
<path display="none" d="M22.995,9.375c0.436,0,0.708,0.476,0.483,0.85c-1.181,1.962-3.331,3.275-5.788,3.275
	c-3.713,0-6.727-2.999-6.75-6.707C10.917,3.069,13.966,0,17.69,0c2.455,0,4.604,1.31,5.785,3.269
	c0.227,0.376-0.042,0.856-0.48,0.856h-4.93L16.19,6.75l1.875,2.625H22.995z M14.948,13.734l-9.387,9.387
	c-1.171,1.172-3.071,1.172-4.242,0c-1.172-1.172-1.172-3.07,0-4.242l9.386-9.387C11.463,11.423,13.017,12.977,14.948,13.734z
	 M5.315,20.25c0-0.621-0.504-1.125-1.125-1.125s-1.125,0.504-1.125,1.125s0.504,1.125,1.125,1.125S5.315,20.871,5.315,20.25z"/>
<path display="none" d="M6.024,19.5c0,0.621-0.504,1.125-1.125,1.125S3.774,20.121,3.774,19.5s0.504-1.125,1.125-1.125
	S6.024,18.879,6.024,19.5z M23.396,11.251C22.095,13.498,19.665,15,16.899,15c-0.662,0-1.313-0.086-1.942-0.254L6.801,22.9
	c-1.465,1.467-3.838,1.466-5.303,0c-1.462-1.462-1.462-3.841,0-5.303l8.156-8.155C9.485,8.813,9.399,8.163,9.399,7.5
	c0-4.143,3.358-7.5,7.5-7.5c2.766,0,5.195,1.501,6.496,3.749C23.974,4.749,23.249,6,22.097,6h-5.115l-0.938,1.5L16.981,9h5.115
	C23.251,9,23.972,10.253,23.396,11.251z M13.431,14.15c-1.359-0.709-2.475-1.825-3.182-3.182l-7.69,7.69
	c-0.877,0.877-0.877,2.305,0,3.182c0.88,0.88,2.303,0.88,3.182,0L13.431,14.15z M22.097,10.5h-5.947l-1.875-3l1.875-3h5.947
	c-1.037-1.793-2.977-3-5.197-3c-3.313,0-6,2.687-6,6s2.687,6,6,6C19.12,13.5,21.06,12.293,22.097,10.5z"/>
<path d="M23.438,18C23.747,18,24,18.253,24,18.563v1.875C24,20.747,23.747,21,23.438,21H0.563C0.253,21,0,20.747,0,20.438V3.563
	C0,3.253,0.253,3,0.563,3h1.875C2.747,3,3,3.253,3,3.563V18H23.438z M21.375,4.5h-5.25c-1.003,0-1.505,1.214-0.797,1.922
	l1.542,1.542l-3.375,3.417l-2.606-2.606c-0.22-0.22-0.572-0.22-0.792,0l-5.578,5.522c-0.22,0.216-0.225,0.572-0.009,0.792
	l1.336,1.378c0.22,0.226,0.582,0.23,0.802,0.005l3.848-3.849l2.602,2.602c0.221,0.221,0.577,0.221,0.797,0l5.119-5.118l1.565,1.565
	c0.708,0.708,1.922,0.206,1.922-0.797v-5.25C22.5,5.001,21.998,4.5,21.375,4.5z"/>
<path display="none" d="M23.438,19.5c0.31,0,0.563,0.253,0.563,0.563v0.375C24,20.747,23.747,21,23.438,21H0.563
	C0.253,21,0,20.747,0,20.438V3.563C0,3.253,0.253,3,0.563,3h0.375C1.247,3,1.5,3.253,1.5,3.563V19.5H23.438z M22.5,5.672v4.406
	c0,1.374-1.669,2.063-2.639,1.092l-1.674-1.673l-4.49,4.49c-0.108,0.108-0.286,0.108-0.398,0l-2.785-2.784L5.241,16.81
	c-0.108,0.112-0.286,0.117-0.398,0.014l-0.685-0.642c-0.112-0.108-0.117-0.286-0.014-0.398l6.141-6.521
	c0.108-0.117,0.291-0.117,0.403-0.005L13.5,12.07l3.628-3.628l-1.673-1.674c-0.976-0.975-0.281-2.639,1.092-2.639h4.406
	C21.807,4.125,22.5,4.819,22.5,5.672z M21.15,5.672c0-0.108-0.085-0.192-0.192-0.192h-4.406c-0.174,0-0.258,0.211-0.136,0.328
	l4.406,4.406c0.121,0.122,0.328,0.038,0.328-0.136V5.672z"/>
<path display="none" d="M5.072,12L12,15.989l-6.928,4.008V12 M12,24l6.928-4.003V12L12,15.989V24z M12,0L5.072,4.003V12L12,7.997V0z
	 M12,7.997L18.928,12V4.003L12,7.997z"/>
</svg>
