<?xml version="1.0" encoding="utf-8"?>
<!-- Generator: Adobe Illustrator 16.0.0, SVG Export Plug-In . SVG Version: 6.00 Build 0)  -->
<!DOCTYPE svg PUBLIC "-//W3C//DTD SVG 1.1//EN" "http://www.w3.org/Graphics/SVG/1.1/DTD/svg11.dtd">
<svg version="1.1" id="Layer_1" xmlns="http://www.w3.org/2000/svg" xmlns:xlink="http://www.w3.org/1999/xlink" x="0px" y="0px"
	 width="24px" height="24px" viewBox="0 0 24 24" enable-background="new 0 0 24 24" xml:space="preserve">
<path display="none" d="M18.964,8.667c0.536,0,1.014,0.103,1.434,0.306c1.259,0.562,1.888,1.572,1.888,3.028v2.371
	c0,0.836-0.104,1.67-0.309,2.488l-1.137,4.541c-0.188,0.769-0.594,1.391-1.214,1.873c-0.621,0.481-1.322,0.723-2.11,0.723H8.572
	c-0.946,0-1.755-0.331-2.425-1.004c-0.67-0.668-1.005-1.477-1.005-2.422v-5.373l-3.2-8.407C1.79,6.389,1.715,5.983,1.715,5.574
	c0-0.946,0.334-1.756,1.004-2.426c0.67-0.667,1.479-1.004,2.424-1.004c0.715,0,1.363,0.203,1.948,0.61
	c0.584,0.407,1.002,0.939,1.253,1.599l0.229,0.59V3.429c0-0.947,0.334-1.753,1.005-2.424c0.668-0.67,1.477-1.003,2.423-1.003
	c0.947,0,1.755,0.333,2.423,1.003c0.67,0.671,1.004,1.477,1.004,2.424v3.495c0.241-0.042,0.457-0.065,0.644-0.065
	c0.617,0,1.186,0.165,1.707,0.489C18.3,7.673,18.697,8.113,18.964,8.667z M16.07,8.572c-0.293,0-0.563,0.081-0.809,0.241
	c-0.245,0.161-0.433,0.377-0.557,0.644l-0.989,2.185l-0.952,2.073h0.735c0.447,0,0.848,0.14,1.206,0.422s0.579,0.644,0.669,1.079
	l2.063-4.525c0.089-0.179,0.136-0.385,0.136-0.616c0-0.412-0.148-0.763-0.442-1.06C16.834,8.72,16.482,8.572,16.07,8.572z
	 M19.03,10.379c-0.196,0-0.376,0.039-0.54,0.109c-0.167,0.073-0.296,0.143-0.392,0.213c-0.092,0.073-0.198,0.204-0.314,0.397
	c-0.114,0.191-0.189,0.326-0.228,0.406c-0.036,0.081-0.11,0.247-0.227,0.498l-1.769,3.88c-0.089,0.18-0.135,0.387-0.135,0.619
	c0,0.411,0.147,0.764,0.442,1.058c0.296,0.292,0.649,0.444,1.06,0.444c0.294,0,0.565-0.083,0.809-0.243
	c0.245-0.16,0.434-0.376,0.558-0.642l2.143-4.714c0.079-0.161,0.121-0.332,0.121-0.509c0-0.447-0.144-0.813-0.43-1.092
	C19.846,10.52,19.477,10.379,19.03,10.379z M3.429,5.574c0,0.197,0.036,0.402,0.107,0.615l3.321,8.706v0.923l1.366-1.485
	c0.384-0.412,0.856-0.618,1.418-0.618h2.652l1.422-3.119V3.429c0-0.472-0.169-0.876-0.503-1.21C12.876,1.882,12.472,1.717,12,1.717
	s-0.876,0.166-1.213,0.502c-0.333,0.333-0.502,0.738-0.502,1.21v8.573H9.429L6.75,4.957C6.627,4.627,6.415,4.361,6.121,4.16
	c-0.296-0.2-0.62-0.302-0.979-0.302c-0.473,0-0.876,0.17-1.212,0.503C3.597,4.695,3.429,5.099,3.429,5.574z M17.516,22.286
	c0.396,0,0.744-0.122,1.052-0.362c0.311-0.241,0.514-0.553,0.611-0.939l1.139-4.538c0.17-0.648,0.253-1.342,0.253-2.073v-1.221
	l-1.888,4.152c-0.151,0.341-0.388,0.612-0.71,0.819c-0.321,0.206-0.67,0.306-1.044,0.306c-0.474,0-0.891-0.156-1.254-0.461
	c-0.36-0.309-0.577-0.695-0.647-1.162c-0.394,0.512-0.903,0.764-1.528,0.764h-2.785v-0.427h2.785c0.411,0,0.774-0.146,1.085-0.441
	c0.313-0.297,0.471-0.65,0.471-1.062c0-0.404-0.14-0.762-0.416-1.053c-0.28-0.297-0.62-0.444-1.033-0.444H9.642
	c-0.437,0-0.803,0.162-1.097,0.485l-1.688,1.817v4.126c0,0.472,0.168,0.876,0.502,1.211c0.335,0.337,0.738,0.503,1.213,0.503H17.516
	z"/>
<path d="M18.561,9.423c-0.613-1.298-2.086-1.92-3.419-1.471V3.145c0-1.75-1.409-3.171-3.142-3.171c-1.731,0-3.141,1.422-3.141,3.171
	l0.134,5.097L7.544,4.035C6.909,2.396,5.078,1.595,3.465,2.239C1.854,2.881,1.063,4.715,1.693,6.343l2.84,7.339
	c-1.37,1.112-2.317,2.421-1.347,4.144l2.684,4.769c0.498,0.884,1.433,1.433,2.439,1.433h10.066c0.633,0,1.253-0.219,1.748-0.616
	c0.49-0.396,0.84-0.952,0.984-1.57l1.341-5.79c0.048-0.212,0.074-0.427,0.074-0.644V12C22.523,9.939,20.403,8.576,18.561,9.423z
	 M4.813,15.39l1.305-1.059c0.126-0.104,0.172-0.275,0.113-0.428L3.096,5.8C2.296,3.736,5.35,2.53,6.142,4.577l2.926,7.56
	c0.057,0.144,0.195,0.24,0.351,0.24h0.569c0.207,0,0.376-0.169,0.376-0.376V3.145c0-2.205,3.275-2.21,3.275,0V12
	c0,0.207,0.169,0.376,0.376,0.376h0.335c0.207,0,0.376-0.169,0.376-0.376v-1.362c0-1.754,2.604-1.757,2.604,0V12
	c0,0.207,0.169,0.376,0.376,0.376h0.337c0.207,0,0.375-0.169,0.375-0.376c0-1.755,2.604-1.757,2.604,0v3.406
	c0,0.103-0.012,0.205-0.036,0.306l-1.342,5.79c-0.139,0.602-0.661,1.021-1.267,1.021H8.31c-0.465,0-0.898-0.256-1.13-0.667
	l-2.684-4.768C4.174,16.516,4.308,15.801,4.813,15.39z"/>
<path display="none" d="M20.613,10.127c-1.033,0-1.872,0.838-1.872,1.873h-0.374v-1.498c0-1.035-0.839-1.873-1.873-1.873
	s-1.873,0.838-1.873,1.873V12h-0.374V2.263c0-1.241-1.006-2.247-2.247-2.247c-1.24,0-2.247,1.006-2.247,2.247V12H9.118L5.852,3.689
	C5.399,2.534,4.095,1.964,2.94,2.419C1.785,2.872,1.216,4.176,1.671,5.331l3.5,8.911l-1.456,1.165
	c-0.72,0.575-0.914,1.592-0.456,2.391l2.996,5.243c0.334,0.585,0.954,0.944,1.626,0.944h11.235c0.87,0,1.625-0.597,1.823-1.443
	l1.498-6.367c0.031-0.141,0.05-0.286,0.05-0.429V12C22.486,10.965,21.647,10.127,20.613,10.127z"/>
<path display="none" d="M20.964,13.666l2.023,1.168c0.23,0.134,0.339,0.41,0.26,0.665c-0.525,1.691-1.424,3.222-2.597,4.49
	c-0.181,0.195-0.475,0.24-0.704,0.108l-2.022-1.168c-0.851,0.729-1.828,1.294-2.885,1.668v2.335c0,0.268-0.185,0.499-0.445,0.555
	c-1.659,0.374-3.442,0.394-5.186,0.002c-0.261-0.058-0.447-0.289-0.447-0.557v-2.335c-1.056-0.374-2.034-0.939-2.885-1.668
	l-2.021,1.168c-0.231,0.132-0.523,0.087-0.704-0.108c-1.174-1.269-2.071-2.799-2.597-4.49c-0.08-0.255,0.028-0.531,0.259-0.665
	l2.024-1.168c-0.203-1.102-0.203-2.23,0-3.332L1.012,9.165c-0.23-0.133-0.338-0.408-0.259-0.664C1.279,6.81,2.176,5.28,3.35,4.011
	c0.181-0.196,0.473-0.24,0.704-0.107l2.021,1.168c0.851-0.729,1.83-1.294,2.885-1.668V1.068c0-0.268,0.185-0.499,0.445-0.557
	c1.659-0.373,3.442-0.393,5.186-0.001c0.262,0.059,0.447,0.29,0.447,0.557v2.336c1.057,0.374,2.034,0.938,2.885,1.668l2.022-1.168
	c0.229-0.133,0.523-0.089,0.704,0.107c1.173,1.27,2.071,2.799,2.597,4.49c0.079,0.256-0.029,0.531-0.26,0.664l-2.023,1.169
	C21.167,11.436,21.167,12.564,20.964,13.666z M15.799,12c0-2.094-1.704-3.798-3.799-3.798c-2.094,0-3.798,1.704-3.798,3.798
	c0,2.095,1.704,3.799,3.798,3.799C14.095,15.799,15.799,14.095,15.799,12z"/>
<path display="none" d="M22.764,14.055l-1.549-0.895c0.098-0.77,0.098-1.55,0-2.321l1.549-0.894
	c0.454-0.263,0.674-0.802,0.525-1.306c-0.533-1.792-1.481-3.405-2.733-4.729c-0.362-0.383-0.94-0.467-1.397-0.203L17.612,4.6
	c-0.618-0.471-1.294-0.861-2.01-1.163V1.651c0-0.528-0.363-0.987-0.878-1.109c-1.787-0.423-3.663-0.424-5.45,0
	C8.761,0.664,8.397,1.123,8.397,1.651v1.786C7.681,3.738,7.005,4.129,6.388,4.6L4.841,3.707C4.384,3.443,3.806,3.527,3.443,3.91
	c-1.251,1.324-2.2,2.937-2.731,4.729c-0.15,0.504,0.07,1.043,0.524,1.306l1.549,0.894c-0.098,0.771-0.098,1.551,0,2.321
	l-1.549,0.895c-0.454,0.263-0.674,0.803-0.524,1.307c0.532,1.792,1.48,3.405,2.731,4.729c0.362,0.383,0.941,0.466,1.398,0.203
	l1.546-0.892c0.618,0.469,1.293,0.86,2.01,1.162v1.785c0,0.527,0.363,0.987,0.877,1.109c1.787,0.423,3.663,0.423,5.45,0
	c0.515-0.122,0.878-0.582,0.878-1.109v-1.785c0.716-0.302,1.392-0.693,2.01-1.162l1.546,0.892c0.457,0.263,1.035,0.18,1.397-0.203
	c1.252-1.323,2.2-2.937,2.733-4.729C23.438,14.857,23.218,14.317,22.764,14.055z M19.655,18.825l-2.199-1.27
	c-1.28,1.095-1.736,1.371-3.373,1.949v2.539c-1.374,0.283-2.792,0.283-4.167,0v-2.539c-1.596-0.563-2.058-0.826-3.373-1.949
	l-2.199,1.27c-0.936-1.05-1.647-2.278-2.086-3.606l2.2-1.271c-0.311-1.681-0.311-2.214,0-3.897l-2.2-1.269
	c0.438-1.328,1.15-2.558,2.086-3.607l2.199,1.271c1.3-1.113,1.76-1.38,3.373-1.951V1.956c1.374-0.284,2.793-0.284,4.167,0v2.539
	c1.613,0.571,2.073,0.838,3.373,1.951l2.199-1.271c0.937,1.049,1.646,2.279,2.085,3.607l-2.199,1.27
	c0.312,1.682,0.312,2.215,0,3.898l2.199,1.269C21.302,16.547,20.592,17.776,19.655,18.825z M12,7.442
	c-2.514,0-4.558,2.044-4.558,4.558S9.486,16.559,12,16.559s4.559-2.045,4.559-4.559S14.514,7.442,12,7.442z M12,15.039
	c-1.676,0-3.039-1.362-3.039-3.039c0-1.676,1.363-3.039,3.039-3.039c1.677,0,3.039,1.363,3.039,3.039
	C15.039,13.677,13.677,15.039,12,15.039z"/>
<path display="none" d="M22.995,9.375c0.436,0,0.708,0.476,0.483,0.85c-1.181,1.962-3.331,3.275-5.788,3.275
	c-3.713,0-6.727-2.999-6.75-6.707C10.917,3.069,13.966,0,17.69,0c2.455,0,4.604,1.31,5.785,3.269
	c0.227,0.376-0.042,0.856-0.48,0.856h-4.93L16.19,6.75l1.875,2.625H22.995z M14.948,13.734l-9.387,9.387
	c-1.171,1.172-3.071,1.172-4.242,0c-1.172-1.172-1.172-3.07,0-4.242l9.386-9.387C11.463,11.423,13.017,12.977,14.948,13.734z
	 M5.315,20.25c0-0.621-0.504-1.125-1.125-1.125s-1.125,0.504-1.125,1.125s0.504,1.125,1.125,1.125S5.315,20.871,5.315,20.25z"/>
<path display="none" d="M6.024,19.5c0,0.621-0.504,1.125-1.125,1.125S3.774,20.121,3.774,19.5s0.504-1.125,1.125-1.125
	S6.024,18.879,6.024,19.5z M23.396,11.251C22.095,13.498,19.665,15,16.899,15c-0.662,0-1.313-0.086-1.942-0.254L6.801,22.9
	c-1.465,1.467-3.838,1.466-5.303,0c-1.462-1.462-1.462-3.841,0-5.303l8.156-8.155C9.485,8.813,9.399,8.163,9.399,7.5
	c0-4.143,3.358-7.5,7.5-7.5c2.766,0,5.195,1.501,6.496,3.749C23.974,4.749,23.249,6,22.097,6h-5.115l-0.938,1.5L16.981,9h5.115
	C23.251,9,23.972,10.253,23.396,11.251z M13.431,14.15c-1.359-0.709-2.475-1.825-3.182-3.182l-7.69,7.69
	c-0.877,0.877-0.877,2.305,0,3.182c0.88,0.88,2.303,0.88,3.182,0L13.431,14.15z M22.097,10.5h-5.947l-1.875-3l1.875-3h5.947
	c-1.037-1.793-2.977-3-5.197-3c-3.313,0-6,2.687-6,6s2.687,6,6,6C19.12,13.5,21.06,12.293,22.097,10.5z"/>
<path display="none" d="M23.438,18C23.747,18,24,18.253,24,18.563v1.875C24,20.747,23.747,21,23.438,21H0.563
	C0.253,21,0,20.747,0,20.438V3.563C0,3.253,0.253,3,0.563,3h1.875C2.747,3,3,3.253,3,3.563V18H23.438z M21.375,4.5h-5.25
	c-1.003,0-1.505,1.214-0.797,1.922l1.542,1.542l-3.375,3.417l-2.606-2.606c-0.22-0.22-0.572-0.22-0.792,0l-5.578,5.522
	c-0.22,0.216-0.225,0.572-0.009,0.792l1.336,1.378c0.22,0.226,0.582,0.23,0.802,0.005l3.848-3.849l2.602,2.602
	c0.221,0.221,0.577,0.221,0.797,0l5.119-5.118l1.565,1.565c0.708,0.708,1.922,0.206,1.922-0.797v-5.25
	C22.5,5.001,21.998,4.5,21.375,4.5z"/>
<path display="none" d="M23.438,19.5c0.31,0,0.563,0.253,0.563,0.563v0.375C24,20.747,23.747,21,23.438,21H0.563
	C0.253,21,0,20.747,0,20.438V3.563C0,3.253,0.253,3,0.563,3h0.375C1.247,3,1.5,3.253,1.5,3.563V19.5H23.438z M22.5,5.672v4.406
	c0,1.374-1.669,2.063-2.639,1.092l-1.674-1.673l-4.49,4.49c-0.108,0.108-0.286,0.108-0.398,0l-2.785-2.784L5.241,16.81
	c-0.108,0.112-0.286,0.117-0.398,0.014l-0.685-0.642c-0.112-0.108-0.117-0.286-0.014-0.398l6.141-6.521
	c0.108-0.117,0.291-0.117,0.403-0.005L13.5,12.07l3.628-3.628l-1.673-1.674c-0.976-0.975-0.281-2.639,1.092-2.639h4.406
	C21.807,4.125,22.5,4.819,22.5,5.672z M21.15,5.672c0-0.108-0.085-0.192-0.192-0.192h-4.406c-0.174,0-0.258,0.211-0.136,0.328
	l4.406,4.406c0.121,0.122,0.328,0.038,0.328-0.136V5.672z"/>
<path display="none" d="M5.072,12L12,15.989l-6.928,4.008V12 M12,24l6.928-4.003V12L12,15.989V24z M12,0L5.072,4.003V12L12,7.997V0z
	 M12,7.997L18.928,12V4.003L12,7.997z"/>
</svg>
